<svg width="64" height="59" viewBox="0 0 64 59" fill="none" xmlns="http://www.w3.org/2000/svg">
<rect y="0.0810547" width="64" height="58" rx="29" fill="#FFEAD5"/>
<path d="M38.6666 17.7476H25.3333C21.3333 17.7476 18.6666 19.7476 18.6666 24.4142V33.7476C18.6666 38.4142 21.3333 40.4142 25.3333 40.4142H38.6666C42.6666 40.4142 45.3333 38.4142 45.3333 33.7476V24.4142C45.3333 19.7476 42.6666 17.7476 38.6666 17.7476ZM39.2933 25.8676L35.12 29.2009C34.24 29.9076 33.12 30.2542 32 30.2542C30.88 30.2542 29.7466 29.9076 28.88 29.2009L24.7066 25.8676C24.28 25.5209 24.2133 24.8809 24.5466 24.4542C24.8933 24.0276 25.52 23.9476 25.9466 24.2942L30.12 27.6276C31.1333 28.4409 32.8533 28.4409 33.8666 27.6276L38.04 24.2942C38.4666 23.9476 39.1066 24.0142 39.44 24.4542C39.7866 24.8809 39.72 25.5209 39.2933 25.8676Z" fill="#FD853A"/>
</svg>
